<?xml version="1.0" encoding="UTF-8"?>
<svg version="1.1" xmlns="http://www.w3.org/2000/svg" width="3507" height="2480">
<path d="M0 0 C1157.31 0 2314.62 0 3507 0 C3507 818.4 3507 1636.8 3507 2480 C2349.69 2480 1192.38 2480 0 2480 C0 1661.6 0 843.2 0 0 Z " fill="#FEFEFE" transform="translate(0,0)"/>
<path d="M0 0 C0.51046875 1.74410156 0.51046875 1.74410156 1.03125 3.5234375 C8.29362189 27.76284899 18.9194258 49.17904706 36 68 C36.83402344 68.96550781 37.66804688 69.93101562 38.52734375 70.92578125 C57.65261533 92.77028576 85.20816152 108.53735628 113.0625 116.3125 C113.92375488 116.55508545 114.78500977 116.7976709 115.67236328 117.04760742 C128.28141934 120.38072456 140.86048974 121.33691899 153.83398438 121.26074219 C155.99898251 121.25000505 158.16315139 121.26072537 160.328125 121.2734375 C173.96161471 121.28975925 187.04672477 119.69307809 200.1875 115.9375 C201.78742798 115.48177612 201.78742798 115.48177612 203.41967773 115.0168457 C244.41703793 102.87683586 278.13171791 74.4713065 298.88476562 37.26513672 C305.10072362 25.53063502 309.32627753 12.72403784 313 0 C318.37557776 -0.11240217 323.26722473 0.22360604 328.58203125 1.1796875 C329.29722427 1.30771759 330.0124173 1.43574768 330.74928284 1.56765747 C333.10553218 1.99399773 335.45911614 2.43313002 337.8125 2.875 C338.6309137 3.02694824 339.44932739 3.17889648 340.2925415 3.33544922 C368.15893459 8.53436812 396.01775397 14.68013742 423.09667969 23.109375 C426.27682735 24.08491979 429.46847342 25.01382475 432.6640625 25.9375 C476.89499708 38.79627815 520.18738772 54.65748325 562 74 C563.34859146 74.62118354 564.69722615 75.24227322 566.04589844 75.86328125 C608.6548136 95.51325691 650.07576851 117.78634029 689.17919922 143.78955078 C691.03280672 145.02180957 692.89282112 146.24391397 694.75390625 147.46484375 C704.32031477 153.76403625 713.67866699 160.34515572 723 167 C723.7312207 167.51965332 724.46244141 168.03930664 725.21582031 168.57470703 C741.71552791 180.30807334 757.6092421 192.74739319 773.26464844 205.58056641 C774.80987406 206.84448618 776.36152781 208.10053789 777.9140625 209.35546875 C788.97800281 218.31432307 799.69033972 227.68040283 810.12109375 237.3671875 C812.35054608 239.40606249 814.59999869 241.40432845 816.87890625 243.38671875 C828.585532 253.59850057 839.63182696 264.53229361 850.625 275.5 C851.13973877 276.01215057 851.65447754 276.52430115 852.18481445 277.05197144 C857.47543725 282.32156783 862.6983816 287.60989262 867.52685547 293.3125 C869.11035371 295.12641115 870.78113565 296.81451409 872.5 298.5 C875.51413582 301.46735323 878.29917333 304.57345292 881.05859375 307.77734375 C883.28804061 310.32976883 885.58001382 312.81887514 887.875 315.3125 C891.94540056 319.77522832 895.80176909 324.36258 899.59375 329.0625 C902.29780389 332.36355281 905.0815942 335.58721603 907.875 338.8125 C913.81425805 345.70331056 919.45580785 352.7891384 925 360 C925.60360352 360.78294434 926.20720703 361.56588867 926.82910156 362.37255859 C928.84854483 364.99521872 930.86266857 367.62187974 932.875 370.25 C933.48633789 371.04607666 934.09767578 371.84215332 934.72753906 372.66235352 C946.0410504 387.50000901 956.68718782 402.7671886 967 418.3125 C967.56682495 419.16506378 968.1336499 420.01762756 968.71765137 420.89602661 C977.06027709 433.45003728 985.29992767 446.03851232 993 459 C993.54446777 459.91072266 994.08893555 460.82144531 994.64990234 461.75976562 C1003.28933686 476.24545229 1011.44780039 490.96403982 1019.34033203 505.86865234 C1020.91525152 508.84010238 1022.50177183 511.80509633 1024.08984375 514.76953125 C1031.97552258 529.58044541 1039.11464104 544.7010331 1046 560 C1046.52706543 561.16853516 1047.05413086 562.33707031 1047.59716797 563.54101562 C1067.08050625 606.98124416 1083.59582396 652.02426274 1096 698 C1096.29747131 699.10187653 1096.29747131 699.10187653 1096.60095215 700.22601318 C1106.7065864 737.77982195 1116.74396372 776.40815706 1120.54296875 815.19140625 C1120.90381911 818.19849259 1121.38035279 821.08624039 1121.953125 824.0546875 C1123.22303993 830.85068473 1123.89011875 837.68571192 1124.5625 844.5625 C1124.75102539 846.43711914 1124.75102539 846.43711914 1124.94335938 848.34960938 C1125.29963926 851.89935087 1125.64996432 855.44963813 1126 859 C1126.33 862.3 1126.66 865.6 1127 869 C1037.24 869 947.48 869 855 869 C853.02 856.46 851.04 843.92 849 831 C842.38871857 798.48550118 834.73703383 766.41558266 824 735 C823.62794434 733.9059082 823.25588867 732.81181641 822.87255859 731.68457031 C798.4979516 660.49814007 762.76729536 593.72632045 717 534 C716.1646875 532.90558594 716.1646875 532.90558594 715.3125 531.7890625 C707.95973393 522.17138188 700.41581046 512.7884492 692.45019531 503.67236328 C691.00090563 502.00104437 689.5719593 500.31439196 688.1484375 498.62109375 C676.14108002 484.36273904 663.15517743 471.06726343 650 457.875 C649.46347809 457.33579926 648.92695618 456.79659851 648.37417603 456.24105835 C642.96847887 450.81486507 637.54692686 445.45689011 631.72119141 440.47607422 C629.14158461 438.2638327 626.67413261 435.94122002 624.1875 433.625 C618.64336143 428.50935164 612.87902985 423.72762452 607 419 C605.81788715 418.0274053 604.63696594 417.05336105 603.45703125 416.078125 C540.68668795 364.33912399 468.23417522 323.81959219 391.41015625 297.18310547 C389.04598804 296.36289075 386.6841558 295.53592371 384.32421875 294.70361328 C367.93620661 288.92738817 351.46505464 283.8591403 334.625 279.5625 C333.82954773 279.3590799 333.03409546 279.15565979 332.21453857 278.94607544 C322.54671718 276.48907045 312.84605679 274.26940023 303.07144165 272.27772522 C299.98107669 271.64598824 296.99578525 270.99859508 294 270 C294.00046794 270.60906426 294.00093588 271.21812851 294.00141801 271.84564926 C294.0522717 338.17477856 294.09938594 404.50391008 294.12702942 470.83305359 C294.12765068 472.31991641 294.12765068 472.31991641 294.12828448 473.83681687 C294.13726379 495.38063077 294.14557426 516.92444487 294.15319599 538.46825929 C294.15693791 549.03377122 294.16082758 559.59928308 294.16479492 570.16479492 C294.1651872 571.2161746 294.16557948 572.26755428 294.16598364 573.35079394 C294.17876126 607.41177178 294.20129039 641.47273465 294.22889166 675.53370343 C294.2572106 710.54398995 294.27566124 745.55426819 294.28174497 780.56456596 C294.2826094 785.51271652 294.28358631 790.46086704 294.28463173 795.40901756 C294.284834 796.38285761 294.28503627 797.35669767 294.28524467 798.36004802 C294.28878593 814.01841693 294.30268963 829.6767602 294.3204961 845.33511866 C294.3381877 861.08780991 294.34489646 876.84047581 294.34050413 892.59317664 C294.3382273 901.9451546 294.34426167 911.29703961 294.36239263 920.64900074 C294.37369312 926.90701207 294.37395546 933.16496298 294.36549544 939.42297858 C294.36099297 942.98173978 294.3610488 946.54032599 294.37464955 950.09906796 C294.46503055 978.77799705 290.83559281 1002.6676362 277 1028 C276.51917969 1028.89976563 276.03835938 1029.79953125 275.54296875 1030.7265625 C259.90812445 1058.39167605 234.22763444 1077.65689425 205 1089 C204.0409375 1089.37898438 203.081875 1089.75796875 202.09375 1090.1484375 C187.78156009 1095.3778915 173.46108693 1096.29101284 158.375 1096.375 C157.33975693 1096.38678284 157.33975693 1096.38678284 156.28359985 1096.39880371 C142.96917516 1096.51660074 129.97299989 1094.80850554 117.3125 1090.5 C116.58466309 1090.25354736 115.85682617 1090.00709473 115.10693359 1089.75317383 C95.92412408 1082.89407471 79.7325817 1071.90326419 65 1058 C63.89398437 1056.99066406 63.89398437 1056.99066406 62.765625 1055.9609375 C41.04533556 1035.39598261 28.63134006 1006.31876318 25 977 C24.83180758 975.8788692 24.66361515 974.75773841 24.49032599 973.60263395 C23.80960008 968.11185887 23.86374201 962.6401867 23.87695217 957.11469269 C23.87579833 955.9269771 23.87464448 954.73926152 23.87345567 953.51555455 C23.87126648 950.22178298 23.87355385 946.92806984 23.87773381 943.63430388 C23.88117544 940.04991486 23.87879579 936.46552892 23.87715632 932.88113928 C23.87508424 926.60019554 23.87672352 920.31926127 23.88079453 914.03831863 C23.88683113 904.69879587 23.88713018 895.35927909 23.88625254 886.01975473 C23.88493874 870.30896981 23.88827965 854.59818909 23.89426994 838.8874054 C23.90018621 823.33091715 23.90403574 807.77443065 23.90512276 792.21794128 C23.9051915 791.25082115 23.90526024 790.28370101 23.90533106 789.28727421 C23.90566939 784.37579453 23.90597077 779.46431485 23.90625793 774.55283517 C23.90835855 739.76145923 23.9150965 704.97008558 23.92456055 670.17871094 C23.93374435 636.37858085 23.94082827 602.57845139 23.94506836 568.77832031 C23.94526565 567.21562209 23.94526565 567.21562209 23.94546692 565.6213542 C23.94678544 555.15921802 23.94806125 544.69708183 23.94930578 534.23494563 C23.95184202 512.9222147 23.95466327 491.60948381 23.95765686 470.29675293 C23.95779415 469.31681998 23.95793144 468.33688703 23.95807289 467.32725915 C23.96727414 401.88483848 23.9831194 336.44241908 24 271 C19.99487424 271.79663516 15.99008498 272.59494977 11.98535156 273.39355469 C10.85803619 273.61776093 9.73072083 273.84196716 8.56924438 274.07296753 C-14.38244114 278.653245 -36.76839063 284.6840619 -59 292 C-60.20688477 292.39590332 -61.41376953 292.79180664 -62.65722656 293.19970703 C-121.42330325 312.61867585 -178.97139364 339.81748617 -230 375 C-231.21185682 375.82348024 -232.42412511 376.64635514 -233.63671875 377.46875 C-249.00941672 387.92539324 -263.97999025 398.74213322 -278.30322266 410.60302734 C-280.5747832 412.47322439 -282.87945346 414.30011941 -285.1875 416.125 C-294.44268986 423.51985019 -303.37784066 431.2301742 -312.05078125 439.296875 C-314.22104294 441.3087154 -316.44296683 443.24875621 -318.68603516 445.17895508 C-322.94990985 448.90535483 -326.97558801 452.83088502 -330.97265625 456.83984375 C-331.69940048 457.56563126 -332.42614471 458.29141876 -333.1749115 459.03919983 C-334.69962296 460.56323556 -336.2230915 462.08851569 -337.74536133 463.61499023 C-340.05633891 465.93132463 -342.37260771 468.24227078 -344.68945312 470.55273438 C-346.1800082 472.04395034 -347.670253 473.53547653 -349.16015625 475.02734375 C-350.18388084 476.048032 -350.18388084 476.048032 -351.22828674 477.08934021 C-355.14731015 481.02724234 -358.89000717 485.06864673 -362.51625061 489.27813721 C-364.42686609 491.49536993 -366.400249 493.65237965 -368.375 495.8125 C-373.10615345 501.06137226 -377.55876785 506.50562076 -382 512 C-383.01082767 513.23120087 -384.02260049 514.46162618 -385.03515625 515.69140625 C-416.79314711 554.34810081 -443.79095192 596.65454308 -466.55175781 641.17089844 C-467.93947083 643.88175792 -469.34042601 646.58544908 -470.7421875 649.2890625 C-492.43845062 691.49565726 -508.81208712 736.80823895 -520.20458984 782.82714844 C-520.95017326 785.80124359 -521.72782054 788.76446355 -522.51953125 791.7265625 C-525.74539455 803.93361868 -528.32353233 816.22742211 -530.6875 828.625 C-530.8321167 829.37593933 -530.9767334 830.12687866 -531.12573242 830.90057373 C-533.55093141 843.564924 -535.25412677 856.19692961 -537 869 C-626.76 869 -716.52 869 -809 869 C-808.40722377 860.70113275 -807.81578099 852.54038865 -806.75 844.3125 C-806.55712402 842.81033936 -806.55712402 842.81033936 -806.36035156 841.27783203 C-805.91453839 837.85083632 -805.45825366 834.42535374 -805 831 C-804.82984375 829.71367676 -804.6596875 828.42735352 -804.484375 827.10205078 C-800.23988459 795.17753265 -794.75952619 763.58782129 -786.84082031 732.35644531 C-785.98987642 728.95958799 -785.17265793 725.55634687 -784.3671875 722.1484375 C-784.10494385 721.03895752 -783.8427002 719.92947754 -783.57250977 718.78637695 C-783.08971004 716.73839418 -782.60826934 714.69009018 -782.12866211 712.64135742 C-766.86626285 648.44607503 -741.58595976 586.35145185 -712.59716797 527.25732422 C-711.17330144 524.35343746 -709.75940114 521.44494647 -708.34765625 518.53515625 C-702.52324932 506.61763099 -696.08132041 495.09382709 -689.47949219 483.59179688 C-687.82911594 480.7006427 -686.21354322 477.79168567 -684.60400391 474.87768555 C-674.5609796 456.77152053 -663.40389646 439.41465469 -651.9375 422.1875 C-651.39513702 421.37086884 -650.85277405 420.55423767 -650.29397583 419.71286011 C-632.19356127 392.49609602 -612.82598416 365.76390272 -591.51953125 340.953125 C-589.09183864 338.10764343 -586.7268294 335.22080717 -584.375 332.3125 C-580.75165505 327.86096192 -576.98036128 323.57617545 -573.1171875 319.33203125 C-571.21948831 317.24176111 -569.35266585 315.13013885 -567.5 313 C-563.38685975 308.28447765 -559.20291607 303.63554594 -555 299 C-554.1845874 298.09773682 -553.3691748 297.19547363 -552.52905273 296.26586914 C-544.46731324 287.40618769 -536.06121398 278.90757882 -527.58056641 270.45019531 C-525.23613323 268.11116519 -522.89715129 265.76677803 -520.55859375 263.421875 C-519.04459166 261.90853313 -517.5302797 260.39550119 -516.015625 258.8828125 C-515.32897766 258.19414093 -514.64233032 257.50546936 -513.93487549 256.79592896 C-510.02363244 252.90332676 -506.01424507 249.18390003 -501.8271637 245.58905029 C-498.69227251 242.86269372 -495.70230031 239.98254127 -492.6875 237.125 C-487.4605134 232.20506227 -482.14137138 227.54625318 -476.53125 223.06640625 C-473.99861847 220.99887218 -471.5926884 218.83886659 -469.1875 216.625 C-464.81299174 212.64316413 -460.25470925 208.98257917 -455.58349609 205.36108398 C-451.76685432 202.39954516 -448.00788283 199.38040171 -444.28027344 196.30761719 C-435.53125812 189.10433361 -426.50228656 182.34229053 -417.32763672 175.69238281 C-415.15926972 174.11580215 -413.00194752 172.52542061 -410.84765625 170.9296875 C-335.6561753 115.53059069 -251.00498176 71.97802742 0 0 Z " fill="#4F46E5" transform="translate(1595,360)"/>
<path d="M0 0 C89.1 0 178.2 0 270 0 C270.99 14.85 271.98 29.7 273 45 C275.74809104 69.84856726 275.74809104 69.84856726 280.23706055 94.37719727 C281.10005645 98.47511606 281.77060151 102.58366468 282.42578125 106.71875 C283.93291639 116.08232717 285.97788219 125.27990932 288.1875 134.5 C288.38153412 135.31717499 288.57556824 136.13434998 288.77548218 136.97628784 C292.00946794 150.55308958 295.74655097 163.88852044 300.08447266 177.15869141 C301.06402035 180.19868503 301.99260455 183.25169458 302.91796875 186.30859375 C305.10382165 193.43435824 307.50929014 200.4756984 310 207.5 C310.35265427 208.495121 310.35265427 208.495121 310.71243286 209.51034546 C334.55036379 276.50309989 368.85055996 339.509302 412 396 C412.59893066 396.78818115 412.59893066 396.78818115 413.20996094 397.59228516 C425.19594887 413.36307568 437.84616061 428.57555886 451.33203125 443.0859375 C453.32152797 445.25894563 455.25593798 447.45190059 457.17675781 449.68383789 C460.90397121 453.94836772 464.83015616 457.97486132 468.83984375 461.97265625 C469.56563126 462.69940048 470.29141876 463.42614471 471.03919983 464.1749115 C472.56323556 465.69962296 474.08851569 467.2230915 475.61499023 468.74536133 C477.93132463 471.05633891 480.24227078 473.37260771 482.55273438 475.68945312 C484.04395034 477.1800082 485.53547653 478.670253 487.02734375 480.16015625 C488.048032 481.18388084 488.048032 481.18388084 489.08934021 482.22828674 C493.02724234 486.14731015 497.06864673 489.89000717 501.27813721 493.51625061 C503.49536993 495.42686609 505.65237965 497.400249 507.8125 499.375 C512.07745308 503.21928245 516.4486085 506.89526905 520.9140625 510.50390625 C523.14939817 512.31198156 525.37188205 514.13112763 527.5859375 515.96484375 C568.80293326 549.98181588 614.36248106 577.96750565 662 602 C663.41321533 602.71470459 663.41321533 602.71470459 664.85498047 603.44384766 C702.2976495 622.23618597 741.75957937 636.53709134 782 648 C782.84788086 648.24411621 783.69576172 648.48823242 784.56933594 648.73974609 C818.74379213 658.49441099 853.86666631 664.61727444 889.125 668.6875 C890.00792725 668.79041351 890.89085449 668.89332703 891.80053711 668.99935913 C917.39826347 671.95214001 942.85785923 673.36151662 968.625 673.25 C969.93416382 673.24656586 971.24332764 673.24313171 972.59216309 673.23959351 C1006.45983396 673.14412351 1039.46993573 670.67296485 1073 666 C1074.92755127 665.73268066 1074.92755127 665.73268066 1076.89404297 665.45996094 C1104.85710197 661.51759009 1132.63399208 655.95004205 1159.65625 647.6965332 C1162.57299246 646.8297138 1165.50363097 646.01632993 1168.43359375 645.1953125 C1176.73730926 642.82779497 1184.93460756 640.16876164 1193.125 637.4375 C1193.90491302 637.17777405 1194.68482605 636.9180481 1195.4883728 636.65045166 C1258.53302183 615.58401772 1318.70582836 585.38193298 1373 547 C1373.70979004 546.49887695 1374.41958008 545.99775391 1375.15087891 545.48144531 C1390.27216646 534.76872559 1405.01079236 523.58297428 1419.06640625 511.5 C1421.79611025 509.17375425 1424.57308751 506.92573847 1427.375 504.6875 C1432.64826087 500.402493 1437.59381939 495.80695987 1442.52294922 491.13549805 C1445.49631236 488.31970945 1448.4914601 485.56542609 1451.609375 482.91015625 C1457.25278287 478.00605051 1462.48003174 472.66898514 1467.75463867 467.37573242 C1469.55862085 465.56639067 1471.36788665 463.76245681 1473.17773438 461.95898438 C1478.47626942 456.66350379 1483.71868335 451.37325381 1488.57885742 445.66625977 C1490.76734777 443.10030089 1493.07640704 440.65520866 1495.375 438.1875 C1499.58508254 433.62531976 1503.59444896 428.9469548 1507.48828125 424.109375 C1509.42753504 421.70868135 1511.38286255 419.32620166 1513.35546875 416.953125 C1520.13453807 408.79401775 1526.75345565 400.57844689 1533 392 C1533.95821735 390.7017373 1534.91655916 389.40356647 1535.875 388.10546875 C1549.15345581 370.02033211 1561.59842504 351.32438253 1573 332 C1573.56009766 331.05495605 1574.12019531 330.10991211 1574.69726562 329.13623047 C1601.74379983 283.35902717 1622.67846493 235.61526781 1639.01898193 185.0919342 C1640.10407563 181.73729639 1641.20121877 178.38802875 1642.33447266 175.04931641 C1661.45814684 118.70702302 1667.78693433 58.98291939 1672 0 C1761.1 0 1850.2 0 1942 0 C1942 31.6127511 1942 31.6127511 1940.875 44.5 C1940.77996689 45.64258774 1940.77996689 45.64258774 1940.68301392 46.80825806 C1936.95920771 91.3804741 1930.79936361 135.35680487 1921 179 C1920.62417621 180.69903674 1920.24910856 182.39824101 1919.875 184.09765625 C1919.22990346 187.02511729 1918.57722052 189.95069651 1917.91796875 192.875 C1917.29182231 195.66197845 1916.69321421 198.45305161 1916.11328125 201.25 C1913.66364378 212.91887234 1910.41101988 224.29627213 1906.98071289 235.71166992 C1906.27066703 238.09245352 1905.56912914 240.47470532 1904.87670898 242.8605957 C1901.74067282 253.6529396 1898.40700733 264.37279631 1894.9375 275.0625 C1894.51756271 276.3565123 1894.51756271 276.3565123 1894.08914185 277.67666626 C1867.02626662 360.79501748 1828.19209734 440.71965774 1779 513 C1778.40783691 513.87374268 1778.40783691 513.87374268 1777.80371094 514.76513672 C1754.40591546 549.25502212 1729.08371011 582.87716184 1701.0390625 613.74609375 C1699.20913753 615.7688269 1697.41118272 617.81369435 1695.625 619.875 C1691.35941979 624.76386134 1686.9726271 629.54045536 1682.56738281 634.30322266 C1681.52300923 635.433814 1680.48068592 636.56630274 1679.44042969 637.70068359 C1670.86875353 647.04188029 1662.01599499 656.08921882 1653.0625 665.0625 C1652.52429626 665.60329193 1651.98609253 666.14408386 1651.43157959 666.70126343 C1646.05706364 672.09617855 1640.66760165 677.41835369 1634.87524414 682.36987305 C1631.36853462 685.41821303 1628.04720357 688.66672839 1624.6875 691.875 C1619.11415108 697.16244296 1613.48745595 702.21509912 1607.47265625 706.99609375 C1604.89798396 709.0826765 1602.44798614 711.26654786 1600 713.5 C1591.05411072 721.63006919 1581.49506403 729.02658724 1571.97021484 736.45947266 C1569.8891181 738.08669948 1567.81360575 739.72088808 1565.73828125 741.35546875 C1550.25530636 753.51738379 1534.3078565 764.97267173 1518 776 C1517.29407715 776.47791992 1516.5881543 776.95583984 1515.86083984 777.44824219 C1443.41689817 826.38943993 1364.74055084 866.09806852 1271.22711182 896.97387695 C1267.60008291 898.14669259 1263.98096137 899.33896691 1260.37036133 900.56152344 C1252.07663151 903.36845698 1243.81680382 906.01454419 1235.3125 908.125 C1233.33845258 908.62725414 1231.36449406 909.12985783 1229.390625 909.6328125 C1228.46056641 909.86774414 1227.53050781 910.10267578 1226.57226562 910.34472656 C1223.22628514 911.19710048 1219.89488381 912.09592278 1216.5625 913 C1214.72946511 913.48615273 1212.89639436 913.97217766 1211.0625 914.45507812 C1209.60073515 914.84128304 1208.13988479 915.23095686 1206.6796875 915.62304688 C1160.2858044 928.01150637 1112.68973359 935.04818516 1065 940 C1064.14577454 940.08997253 1063.29154907 940.17994507 1062.41143799 940.27264404 C1004.68724695 946.34234634 944.76334658 946.78421914 887 941 C886.08871338 940.9104303 885.17742676 940.8208606 884.23852539 940.72857666 C821.49579959 934.54594834 759.49621409 924.0391809 699 906 C698.02401855 905.70899414 697.04803711 905.41798828 696.04248047 905.11816406 C627.22351469 884.48230093 559.85903603 857.41959451 497.54443359 821.45361328 C494.49542506 819.71174062 491.41602471 818.03115285 488.33032227 816.35546875 C435.18006629 787.38533948 385.54750222 750.64395671 339.61083984 711.37255859 C337.96105316 709.96681432 336.30345255 708.57072891 334.64453125 707.17578125 C327.51704596 701.15760069 320.62191115 694.93758106 313.85620117 688.51464844 C310.51693769 685.34567999 307.14170559 682.24216216 303.68359375 679.203125 C296.11386125 672.41519875 289.00013111 665.14881191 281.82202148 657.95239258 C279.31150926 655.43650714 276.79567936 652.92602814 274.27929688 650.41601562 C272.66113751 648.79719563 271.04328828 647.17806555 269.42578125 645.55859375 C268.68395096 644.81878769 267.94212067 644.07898163 267.17781067 643.3167572 C263.13665139 639.25760489 259.25882161 635.11149195 255.52723694 630.76535034 C253.13612358 628.00143554 250.62502881 625.3524861 248.125 622.6875 C243.58973456 617.81760188 239.31319449 612.80345476 235.14453125 607.61328125 C233.00125044 605.00152377 230.7761967 602.49634698 228.5 600 C220.37124715 591.05555915 212.97624767 581.49815438 205.54492188 571.97460938 C203.90564957 569.87940799 202.25780063 567.7911308 200.609375 565.703125 C193.25281859 556.35525124 186.22671768 546.84163432 179.44580078 537.06933594 C178.04056868 535.05806487 176.61640093 533.06200905 175.18359375 531.0703125 C154.98620757 502.9379916 136.67862469 473.33714775 120 443 C119.16952148 441.49348877 119.16952148 441.49348877 118.32226562 439.95654297 C103.63042559 413.22392753 90.05952314 386.02464142 78 358 C77.72412048 357.36056458 77.44824097 356.72112915 77.16400146 356.06231689 C62.3519832 321.6783048 49.97427672 286.40760656 39.09570312 250.59570312 C38.14647892 247.48069106 37.18018012 244.37198646 36.203125 241.265625 C32.84656257 230.50352921 30.12323806 219.63412308 27.56640625 208.65625 C26.5150913 204.1439395 25.41600136 199.6473038 24.27734375 195.15625 C20.06681234 178.43366261 16.84379284 161.69512019 13.98466492 144.70118713 C13.21815766 140.17843429 12.35163908 135.68707803 11.41650391 131.19677734 C5.44998079 102.27647418 3.17436847 72.40884158 1 43 C0.89196045 41.59137695 0.89196045 41.59137695 0.78173828 40.15429688 C0.72099121 39.34541016 0.66024414 38.53652344 0.59765625 37.703125 C0.54875244 37.0524707 0.49984863 36.40181641 0.44946289 35.73144531 C-0.24523744 23.77913239 0 12.04705517 0 0 Z " fill="#BBBDC0" transform="translate(783,1347)"/>
<path d="M0 0 C1.78482788 0.01232666 1.78482788 0.01232666 3.60571289 0.02490234 C24.19059705 0.28644947 43.35095647 4.75784907 61.6875 14.25 C63.0796875 14.94029297 63.0796875 14.94029297 64.5 15.64453125 C75.82492855 21.48394754 85.4462927 29.56002261 94.6875 38.25 C95.27789063 38.7759375 95.86828125 39.301875 96.4765625 39.84375 C117.19361877 59.08802976 131.22200227 90.44984068 132.88012695 118.50976562 C132.95451098 121.86326635 132.96575287 125.20831026 132.9375 128.5625 C132.92928223 129.75238525 132.92106445 130.94227051 132.91259766 132.16821289 C132.6511322 152.74666917 128.18729915 171.92185347 118.6875 190.25 C118.21570312 191.18972656 117.74390625 192.12945312 117.2578125 193.09765625 C111.57042844 204.02665643 104.12017693 213.32299374 95.6875 222.25 C95.00171875 223.00023437 94.3159375 223.75046875 93.609375 224.5234375 C71.94614253 247.39018289 39.8232003 260.39985974 8.671875 261.58984375 C-29.27881957 262.39952647 -62.51880605 250.07045306 -90.20483398 223.6940918 C-97.2204223 216.84053578 -103.01470213 209.48998846 -108.3125 201.25 C-109.00988281 200.17492187 -109.70726562 199.09984375 -110.42578125 197.9921875 C-127.28251124 170.30132619 -133.56377204 134.95355569 -126.34765625 103.18359375 C-116.98711624 66.3642303 -95.08276306 36.20615406 -62.45092773 16.56713867 C-43.35563606 5.613904 -21.96046269 -0.18497641 0 0 Z " fill="#4F46E5" transform="translate(1749.3125,189.75)"/>
<path d="M0 0 C169.29 0 338.58 0 513 0 C513 28.38 513 56.76 513 86 C343.71 86 174.42 86 0 86 C0 57.62 0 29.24 0 0 Z " fill="#00A650" transform="translate(1063,1244)"/>
</svg>
